<svg width="256" height="256" viewBox="0 0 256 256" fill="none" xmlns="http://www.w3.org/2000/svg">
<path d="M221.36 33.872C197.478 -0.151357 150.311 -10.2355 116.209 11.3914L56.3159 49.3897C48.2249 54.4564 41.285 61.1478 35.9398 69.0361C30.5946 76.9244 26.9617 85.836 25.2733 95.2013C22.416 110.977 24.9271 127.251 32.4088 141.446C27.2821 149.187 23.7854 157.882 22.1301 167.007C20.424 176.561 20.6516 186.358 22.7996 195.823C24.9477 205.288 28.9729 214.231 34.6391 222.128C58.5253 256.154 105.691 266.234 139.789 244.608L199.683 206.611C207.774 201.545 214.715 194.853 220.06 186.965C225.405 179.076 229.038 170.164 230.725 160.798C233.582 145.023 231.073 128.75 223.595 114.553C228.72 106.812 232.215 98.1169 233.869 88.9931C235.576 79.4391 235.349 69.642 233.201 60.1765C231.053 50.711 227.027 41.7679 221.36 33.872Z" fill="#FF3E00"/>
<path d="M110.337 225.471C91.0082 230.475 70.5973 222.942 59.2134 206.604C55.8011 201.848 53.3772 196.462 52.0836 190.762C50.7901 185.061 50.6531 179.16 51.6807 173.406C52.0287 171.517 52.5076 169.654 53.1139 167.831L54.2435 164.403L57.3149 166.649C64.4101 171.84 72.3431 175.786 80.7722 178.318L83.0003 178.991L82.7953 181.206C82.5228 184.357 83.3795 187.502 85.2133 190.083C86.8858 192.486 89.2586 194.32 92.0113 195.337C94.764 196.354 97.7639 196.506 100.606 195.771C101.909 195.425 103.152 194.881 104.29 194.16L164.255 156.112C165.722 155.192 166.981 153.978 167.951 152.547C168.921 151.116 169.581 149.5 169.889 147.801C170.197 146.066 170.155 144.288 169.765 142.57C169.375 140.852 168.646 139.229 167.619 137.795C165.946 135.391 163.572 133.557 160.818 132.539C158.065 131.522 155.064 131.369 152.221 132.103C150.919 132.45 149.679 132.993 148.543 133.714L125.659 148.237C121.897 150.619 117.791 152.415 113.483 153.561C94.155 158.565 73.7432 151.032 62.361 134.693C58.9485 129.938 56.5244 124.552 55.2307 118.852C53.937 113.151 53.8 107.251 54.8275 101.497C55.8438 95.8567 58.0312 90.49 61.2498 85.7399C64.4683 80.9898 68.6472 76.9608 73.519 73.9107L133.479 35.859C137.243 33.4733 141.353 31.6758 145.664 30.5291C164.992 25.5249 185.404 33.0583 196.786 49.3962C200.198 54.1516 202.622 59.5376 203.916 65.2383C205.21 70.939 205.347 76.8395 204.319 82.5937C203.97 84.4823 203.491 86.3449 202.886 88.1685L201.757 91.5974L198.686 89.3539C191.592 84.1606 183.658 80.2126 175.228 77.6803L172.999 77.0063L173.205 74.7921C173.475 71.6418 172.619 68.4977 170.787 65.915C169.114 63.512 166.741 61.6781 163.989 60.6609C161.236 59.6437 158.236 59.4922 155.394 60.2268C154.09 60.5737 152.848 61.1174 151.71 61.8388L91.7453 99.888C90.278 100.807 89.0193 102.021 88.0498 103.452C87.0802 104.882 86.4211 106.499 86.1144 108.198C85.805 109.932 85.8461 111.71 86.2353 113.428C86.6245 115.147 87.354 116.77 88.381 118.204C90.0545 120.608 92.4282 122.442 95.1818 123.46C97.9353 124.478 100.936 124.63 103.779 123.896C105.082 123.548 106.324 123.005 107.462 122.284L130.342 107.766C134.103 105.381 138.209 103.584 142.517 102.437C161.845 97.4338 182.257 104.967 193.64 121.306C197.052 126.061 199.476 131.447 200.77 137.147C202.063 142.848 202.2 148.748 201.173 154.502C200.156 160.142 197.968 165.509 194.75 170.26C191.531 175.011 187.353 179.041 182.481 182.093L122.521 220.141C118.757 222.527 114.648 224.324 110.337 225.471Z" fill="white"/>
</svg>
